<?xml version="1.0" encoding="UTF-8"?>
<svg width="150px" height="50px" viewBox="0 0 150 50" version="1.1" xmlns="http://www.w3.org/2000/svg" xmlns:xlink="http://www.w3.org/1999/xlink">
    <!-- Generator: Sketch 54.1 (76490) - https://sketchapp.com -->
    <title>logo_RB</title>
    <desc>Created with Sketch.</desc>
    <g id="logo_RB" stroke="none" stroke-width="1" fill="none" fill-rule="evenodd">
        <path d="M15.5975,30 L14.5175,30 L14.5175,19.38 L17.6375,19.38 C18.1575026,19.38 18.6399978,19.4299995 19.085,19.53 C19.5300022,19.6300005 19.9149984,19.7924989 20.24,20.0175 C20.5650016,20.2425011 20.8174991,20.5349982 20.9975,20.895 C21.1775009,21.2550018 21.2675,21.6949974 21.2675,22.215 C21.2675,22.605002 21.1975007,22.9599984 21.0575,23.28 C20.9174993,23.6000016 20.7275012,23.8774988 20.4875,24.1125 C20.2474988,24.3475012 19.9625017,24.5349993 19.6325,24.675 C19.3024984,24.8150007 18.942502,24.9049998 18.5525,24.945 L21.6575,30 L20.3375,30 L17.3975,25.035 L15.5975,25.035 L15.5975,30 Z M15.5975,24.105 L17.4725,24.105 C18.3425044,24.105 19.0124977,23.9475016 19.4825,23.6325 C19.9525024,23.3174984 20.1875,22.8450032 20.1875,22.215 C20.1875,21.8649982 20.1225007,21.5700012 19.9925,21.33 C19.8624994,21.0899988 19.6825012,20.8950008 19.4525,20.745 C19.2224989,20.5949993 18.9425017,20.4850003 18.6125,20.415 C18.2824984,20.3449997 17.917502,20.31 17.5175,20.31 L15.5975,20.31 L15.5975,24.105 Z M34.0025,24.69 C34.0025,25.5000041 33.8625014,26.2449966 33.5825,26.925 C33.3024986,27.6050034 32.9150025,28.1924975 32.42,28.6875 C31.9249975,29.1825025 31.3400034,29.5699986 30.665,29.85 C29.9899966,30.1300014 29.257504,30.27 28.4675,30.27 C27.6774961,30.27 26.9450034,30.1300014 26.27,29.85 C25.5949966,29.5699986 25.0100025,29.1825025 24.515,28.6875 C24.0199975,28.1924975 23.6325014,27.6050034 23.3525,26.925 C23.0724986,26.2449966 22.9325,25.5000041 22.9325,24.69 C22.9325,23.879996 23.0724986,23.1350034 23.3525,22.455 C23.6325014,21.7749966 24.0199975,21.1875025 24.515,20.6925 C25.0100025,20.1974975 25.5949966,19.8100014 26.27,19.53 C26.9450034,19.2499986 27.6774961,19.11 28.4675,19.11 C29.257504,19.11 29.9899966,19.2499986 30.665,19.53 C31.3400034,19.8100014 31.9249975,20.1974975 32.42,20.6925 C32.9150025,21.1875025 33.3024986,21.7749966 33.5825,22.455 C33.8625014,23.1350034 34.0025,23.879996 34.0025,24.69 Z M32.8625,24.69 C32.8625,24.0699969 32.762501,23.4800028 32.5625,22.92 C32.362499,22.3599972 32.0725019,21.8675021 31.6925,21.4425 C31.3124981,21.0174979 30.8500027,20.6800013 30.305,20.43 C29.7599973,20.1799987 29.1475034,20.055 28.4675,20.055 C27.7874966,20.055 27.1750027,20.1799987 26.63,20.43 C26.0849973,20.6800013 25.6225019,21.0174979 25.2425,21.4425 C24.8624981,21.8675021 24.572501,22.3599972 24.3725,22.92 C24.172499,23.4800028 24.0725,24.0699969 24.0725,24.69 C24.0725,25.3100031 24.172499,25.8999972 24.3725,26.46 C24.572501,27.0200028 24.8624981,27.5099979 25.2425,27.93 C25.6225019,28.3500021 26.0849973,28.6849987 26.63,28.935 C27.1750027,29.1850012 27.7874966,29.31 28.4675,29.31 C29.1475034,29.31 29.7599973,29.1850012 30.305,28.935 C30.8500027,28.6849987 31.3124981,28.3500021 31.6925,27.93 C32.0725019,27.5099979 32.362499,27.0200028 32.5625,26.46 C32.762501,25.8999972 32.8625,25.3100031 32.8625,24.69 Z M36.2525,19.38 L39.4175,19.38 C39.817502,19.38 40.222498,19.4224996 40.6325,19.5075 C41.0425021,19.5925004 41.4099984,19.737499 41.735,19.9425 C42.0600016,20.147501 42.324999,20.4249983 42.53,20.775 C42.735001,21.1250018 42.8375,21.5649973 42.8375,22.095 C42.8375,22.6550028 42.6675017,23.1424979 42.3275,23.5575 C41.9874983,23.9725021 41.5325029,24.2449994 40.9625,24.375 L40.9625,24.405 C41.6525035,24.4850004 42.2249977,24.7524977 42.68,25.2075 C43.1350023,25.6625023 43.3625,26.2799961 43.3625,27.06 C43.3625,27.5000022 43.2700009,27.9024982 43.085,28.2675 C42.8999991,28.6325018 42.6375017,28.9424987 42.2975,29.1975 C41.9574983,29.4525013 41.5425025,29.6499993 41.0525,29.79 C40.5624976,29.9300007 40.0125031,30 39.4025,30 L36.2525,30 L36.2525,19.38 Z M37.3325,24.03 L39.5075,24.03 C39.7675013,24.03 40.0299987,24.0000003 40.295,23.94 C40.5600013,23.8799997 40.8024989,23.7775007 41.0225,23.6325 C41.2425011,23.4874993 41.4199993,23.2950012 41.555,23.055 C41.6900007,22.8149988 41.7575,22.5200017 41.7575,22.17 C41.7575,21.8299983 41.6900007,21.5425012 41.555,21.3075 C41.4199993,21.0724988 41.2375012,20.8800008 41.0075,20.73 C40.7774989,20.5799993 40.5075016,20.4725003 40.1975,20.4075 C39.8874985,20.3424997 39.5575018,20.31 39.2075,20.31 L37.3325,20.31 L37.3325,24.03 Z M37.3325,29.07 L39.3425,29.07 C39.732502,29.07 40.1049982,29.0325004 40.46,28.9575 C40.8150018,28.8824996 41.1249987,28.7625008 41.39,28.5975 C41.6550013,28.4324992 41.8674992,28.2175013 42.0275,27.9525 C42.1875008,27.6874987 42.2675,27.3700019 42.2675,27 C42.2675,26.2999965 42.0300024,25.7775017 41.555,25.4325 C41.0799976,25.0874983 40.4075044,24.915 39.5375,24.915 L37.3325,24.915 L37.3325,29.07 Z M46.8725,30 L45.7925,30 L45.7925,19.38 L46.8725,19.38 L46.8725,30 Z M57.2225,28.425 L57.2525,28.425 L57.2525,19.38 L58.3325,19.38 L58.3325,30 L56.9825,30 L50.8025,20.865 L50.7725,20.865 L50.7725,30 L49.6925,30 L49.6925,19.38 L51.0425,19.38 L57.2225,28.425 Z M64.9025,19.38 L68.0675,19.38 C68.467502,19.38 68.872498,19.4224996 69.2825,19.5075 C69.6925021,19.5925004 70.0599984,19.737499 70.385,19.9425 C70.7100016,20.147501 70.974999,20.4249983 71.18,20.775 C71.385001,21.1250018 71.4875,21.5649973 71.4875,22.095 C71.4875,22.6550028 71.3175017,23.1424979 70.9775,23.5575 C70.6374983,23.9725021 70.1825029,24.2449994 69.6125,24.375 L69.6125,24.405 C70.3025035,24.4850004 70.8749977,24.7524977 71.33,25.2075 C71.7850023,25.6625023 72.0125,26.2799961 72.0125,27.06 C72.0125,27.5000022 71.9200009,27.9024982 71.735,28.2675 C71.5499991,28.6325018 71.2875017,28.9424987 70.9475,29.1975 C70.6074983,29.4525013 70.1925025,29.6499993 69.7025,29.79 C69.2124976,29.9300007 68.6625031,30 68.0525,30 L64.9025,30 L64.9025,19.38 Z M65.9825,24.03 L68.1575,24.03 C68.4175013,24.03 68.6799987,24.0000003 68.945,23.94 C69.2100013,23.8799997 69.4524989,23.7775007 69.6725,23.6325 C69.8925011,23.4874993 70.0699993,23.2950012 70.205,23.055 C70.3400007,22.8149988 70.4075,22.5200017 70.4075,22.17 C70.4075,21.8299983 70.3400007,21.5425012 70.205,21.3075 C70.0699993,21.0724988 69.8875012,20.8800008 69.6575,20.73 C69.4274989,20.5799993 69.1575016,20.4725003 68.8475,20.4075 C68.5374985,20.3424997 68.2075018,20.31 67.8575,20.31 L65.9825,20.31 L65.9825,24.03 Z M65.9825,29.07 L67.9925,29.07 C68.382502,29.07 68.7549982,29.0325004 69.11,28.9575 C69.4650018,28.8824996 69.7749987,28.7625008 70.04,28.5975 C70.3050013,28.4324992 70.5174992,28.2175013 70.6775,27.9525 C70.8375008,27.6874987 70.9175,27.3700019 70.9175,27 C70.9175,26.2999965 70.6800024,25.7775017 70.205,25.4325 C69.7299976,25.0874983 69.0575044,24.915 68.1875,24.915 L65.9825,24.915 L65.9825,29.07 Z M75.5225,29.04 L80.4725,29.04 L80.4725,30 L74.4425,30 L74.4425,19.38 L75.5225,19.38 L75.5225,29.04 Z M83.1725,29.04 L88.8575,29.04 L88.8575,30 L82.0925,30 L82.0925,19.38 L88.6775,19.38 L88.6775,20.34 L83.1725,20.34 L83.1725,24 L88.3175,24 L88.3175,24.945 L83.1725,24.945 L83.1725,29.04 Z M96.1175,21.09 C95.8874989,20.7699984 95.5925018,20.512501 95.2325,20.3175 C94.8724982,20.122499 94.4375026,20.025 93.9275,20.025 C93.6674987,20.025 93.4025013,20.0649996 93.1325,20.145 C92.8624986,20.2250004 92.6175011,20.3474992 92.3975,20.5125 C92.1774989,20.6775008 92.0000007,20.8849987 91.865,21.135 C91.7299993,21.3850012 91.6625,21.6799983 91.6625,22.02 C91.6625,22.3600017 91.7274994,22.6399989 91.8575,22.86 C91.9875007,23.0800011 92.1599989,23.2674992 92.375,23.4225 C92.5900011,23.5775008 92.8349986,23.7049995 93.11,23.805 C93.3850014,23.9050005 93.6724985,24.0049995 93.9725,24.105 C94.3425019,24.2250006 94.7149981,24.3549993 95.09,24.495 C95.4650019,24.6350007 95.8024985,24.8174989 96.1025,25.0425 C96.4025015,25.2675011 96.647499,25.5524983 96.8375,25.8975 C97.027501,26.2425017 97.1225,26.6799974 97.1225,27.21 C97.1225,27.7400027 97.020001,28.1974981 96.815,28.5825 C96.609999,28.9675019 96.3450016,29.2849987 96.02,29.535 C95.6949984,29.7850013 95.3250021,29.9699994 94.91,30.09 C94.4949979,30.2100006 94.0775021,30.27 93.6575,30.27 C93.3374984,30.27 93.0175016,30.2375003 92.6975,30.1725 C92.3774984,30.1074997 92.0725015,30.0100007 91.7825,29.88 C91.4924985,29.7499994 91.2225012,29.585001 90.9725,29.385 C90.7224987,29.184999 90.5025009,28.9550013 90.3125,28.695 L91.2425,28.005 C91.4725011,28.3850019 91.7949979,28.7024987 92.21,28.9575 C92.6250021,29.2125013 93.1124972,29.34 93.6725,29.34 C93.9425014,29.34 94.2174986,29.2975004 94.4975,29.2125 C94.7775014,29.1274996 95.0299989,28.9975009 95.255,28.8225 C95.4800011,28.6474991 95.6649993,28.4325013 95.81,28.1775 C95.9550007,27.9224987 96.0275,27.6250017 96.0275,27.285 C96.0275,26.9149982 95.9550007,26.6075012 95.81,26.3625 C95.6649993,26.1174988 95.4725012,25.9125008 95.2325,25.7475 C94.9924988,25.5824992 94.7175016,25.4450005 94.4075,25.335 C94.0974985,25.2249995 93.7725017,25.1150006 93.4325,25.005 C93.0824983,24.8949995 92.7375017,24.7700007 92.3975,24.63 C92.0574983,24.4899993 91.7525014,24.3075011 91.4825,24.0825 C91.2124987,23.8574989 90.9950008,23.5800016 90.83,23.25 C90.6649992,22.9199984 90.5825,22.5150024 90.5825,22.035 C90.5825,21.5249975 90.684999,21.0850019 90.89,20.715 C91.095001,20.3449981 91.3624984,20.0400012 91.6925,19.8 C92.0225017,19.5599988 92.387498,19.3850006 92.7875,19.275 C93.187502,19.1649994 93.582498,19.11 93.9725,19.11 C94.6925036,19.11 95.3074974,19.2374987 95.8175,19.4925 C96.3275025,19.7475013 96.7124987,20.0499982 96.9725,20.4 L96.1175,21.09 Z M108.3725,28.29 C108.192499,28.5600014 107.975001,28.8149988 107.72,29.055 C107.464999,29.2950012 107.170002,29.5049991 106.835,29.685 C106.499998,29.8650009 106.130002,30.0074995 105.725,30.1125 C105.319998,30.2175005 104.877502,30.27 104.3975,30.27 C103.597496,30.27 102.857503,30.1300014 102.1775,29.85 C101.497497,29.5699986 100.912502,29.1825025 100.4225,28.6875 C99.9324975,28.1924975 99.5500014,27.6050034 99.275,26.925 C98.9999986,26.2449966 98.8625,25.5000041 98.8625,24.69 C98.8625,23.879996 99.0024986,23.1350034 99.2825,22.455 C99.5625014,21.7749966 99.9499975,21.1875025 100.445,20.6925 C100.940002,20.1974975 101.524997,19.8100014 102.2,19.53 C102.875003,19.2499986 103.607496,19.11 104.3975,19.11 C104.787502,19.11 105.169998,19.1499996 105.545,19.23 C105.920002,19.3100004 106.272498,19.4224993 106.6025,19.5675 C106.932502,19.7125007 107.232499,19.887499 107.5025,20.0925 C107.772501,20.297501 107.997499,20.5299987 108.1775,20.79 L107.2775,21.45 C107.167499,21.2799992 107.020001,21.1100008 106.835,20.94 C106.649999,20.7699992 106.432501,20.6200007 106.1825,20.49 C105.932499,20.3599994 105.660001,20.2550004 105.365,20.175 C105.069999,20.0949996 104.752502,20.055 104.4125,20.055 C103.722497,20.055 103.105003,20.1799987 102.56,20.43 C102.014997,20.6800013 101.552502,21.0174979 101.1725,21.4425 C100.792498,21.8675021 100.502501,22.3599972 100.3025,22.92 C100.102499,23.4800028 100.0025,24.0699969 100.0025,24.69 C100.0025,25.3100031 100.104999,25.8999972 100.31,26.46 C100.515001,27.0200028 100.807498,27.5124979 101.1875,27.9375 C101.567502,28.3625021 102.029997,28.6999987 102.575,28.95 C103.120003,29.2000012 103.732497,29.325 104.4125,29.325 C105.022503,29.325 105.602497,29.2000012 106.1525,28.95 C106.702503,28.6999987 107.162498,28.3000028 107.5325,27.75 L108.3725,28.29 Z M110.2325,19.38 L111.3125,19.38 L111.3125,23.985 L117.1025,23.985 L117.1025,19.38 L118.1825,19.38 L118.1825,30 L117.1025,30 L117.1025,24.975 L111.3125,24.975 L111.3125,30 L110.2325,30 L110.2325,19.38 Z M122.0825,24.15 L122.0975,24.15 L127.1525,19.38 L128.6975,19.38 L123.3425,24.195 L128.9975,30 L127.4075,30 L122.0975,24.345 L122.0825,24.345 L122.0825,30 L121.0025,30 L121.0025,19.38 L122.0825,19.38 L122.0825,24.15 Z M131.5025,29.04 L137.1875,29.04 L137.1875,30 L130.4225,30 L130.4225,19.38 L137.0075,19.38 L137.0075,20.34 L131.5025,20.34 L131.5025,24 L136.6475,24 L136.6475,24.945 L131.5025,24.945 L131.5025,29.04 Z" id="ROBINBLESCHKE" fill="#000000" fill-rule="nonzero"></path>
    </g>
</svg>